<svg xmlns="http://www.w3.org/2000/svg" xmlns:xlink="http://www.w3.org/1999/xlink" xmlns:fi="http://pattern.flaticon.com/" x="0" y="0" width="700" height="350" viewBox="0 0 700 350"><rect x="0px" y="0px" width="100%" height="100%" opacity="1" fill="#ffffff"/><defs><g transform="matrix(0.11637920886278152 0 0 0.11637920886278152 25 160)" id="L1_21"><path d="m223.227 515.556-62.116-17.181 137.229-498.375 62.116 17.181z"/><path d="m354.445 96.667v96.667l64.444 64.444-64.444 64.444v96.667l161.111-161.111z"/><path d="m161.111 322.223-64.444-64.444 64.444-64.444v-96.668l-161.111 161.111 161.111 161.111z"/></g><g transform="matrix(0.9375 0 0 0.9375 92 32)" id="L1_22"><path d="m3 3h58v58h-58z" fill="#394d5c"/><path d="m3 3h16v8h-16z" fill="#7d8d9c"/><path d="m6 6h2v2h-2z" fill="#e1462b"/><path d="m10 6h2v2h-2z" fill="#f9bb4b"/><path d="m14 6h2v2h-2z" fill="#55b56a"/><path d="m19 3h42v8h-42z" fill="#aabece"/><path d="m53 61h-42v-46h34l8 8z" fill="#f4f4e6"/><path d="m53 23h-8v-8z" fill="#d6d5c5"/><circle cx="32" cy="30" r="11" fill="#ffd782"/><g fill="#394d5c"><path d="m29.293 25.293-1.293 1.293-1.293-1.293-1.414 1.414 1.293 1.293-1.293 1.293 1.414 1.414 1.293-1.293 1.293 1.293 1.414-1.414-1.293-1.293 1.293-1.293z"/><path d="m38.707 26.707-1.414-1.414-1.293 1.293-1.293-1.293-1.414 1.414 1.293 1.293-1.293 1.293 1.414 1.414 1.293-1.293 1.293 1.293 1.414-1.414-1.293-1.293z"/><path d="m36.051 36.316c-.03-.086-.864-2.316-4.051-2.316-3.242 0-4.043 2.293-4.051 2.316l-1.9-.632c.051-.151 1.284-3.684 5.951-3.684s5.9 3.533 5.949 3.684z"/><path d="m24 57h-2v-3h-5a1 1 0 0 1 -.759-1.65l6-7a1 1 0 0 1 1.759.65v6h2v2h-2zm-4.826-5h2.826v-3.3z"/><path d="m46 57h-2v-3h-5a1 1 0 0 1 -.759-1.65l6-7a1 1 0 0 1 1.759.65v6h2v2h-2zm-4.826-5h2.826v-3.3z"/><path d="m33 57h-2a3 3 0 0 1 -3-3v-6a3 3 0 0 1 3-3h2a3 3 0 0 1 3 3v6a3 3 0 0 1 -3 3zm-2-10a1 1 0 0 0 -1 1v6a1 1 0 0 0 1 1h2a1 1 0 0 0 1-1v-6a1 1 0 0 0 -1-1z"/></g><path d="m16 30h-2v-11a1 1 0 0 1 1-1h5v2h-4z" fill="#d6d5c5"/><path d="m14 32h2v2h-2z" fill="#d6d5c5"/></g><g transform="matrix(1.3429428339004517 0 0 1.3429428339004517 224 75)" id="L1_23"><path d="M13.16,18.613c0,0-0.063-0.694-0.094-1.042c0.164-0.094,0.321-0.196,0.468-0.31c0.261,0.15,0.781,0.451,0.781,0.451     l0.887-0.233l1.006-1.739l-0.233-0.887c0,0-0.67-0.389-1.005-0.581c-0.009-0.193-0.03-0.385-0.069-0.569     c0.266-0.229,0.796-0.682,0.796-0.682v-0.917l-1.309-1.526h-0.917c0,0-0.435,0.372-0.652,0.559     c-0.236-0.114-0.485-0.208-0.745-0.279c-0.021-0.258-0.063-0.775-0.063-0.775l-0.648-0.648L9.36,9.597l-0.648,0.648     c0,0,0.055,0.681,0.082,1.021c-0.196,0.111-0.381,0.237-0.554,0.378c-0.281-0.13-0.846-0.387-0.846-0.387l-0.887,0.232     l-0.839,1.828l-0.029,0.125l0.263,0.762c0,0,0.654,0.299,0.982,0.449c0.014,0.216,0.047,0.425,0.101,0.63     c-0.25,0.21-0.749,0.635-0.749,0.635v0.916l1.299,1.534c0,0,0.755,0.09,0.796,0.067c0.041-0.022,0.122-0.067,0.122-0.067     s0.475-0.402,0.712-0.604c0.2,0.09,0.409,0.165,0.626,0.224c0.024,0.27,0.074,0.809,0.074,0.809l0.648,0.648l2-0.183     L13.16,18.613z M10.815,16.461c-1.116,0-2.021-0.905-2.021-2.021c0-1.117,0.905-2.022,2.021-2.022     c1.118,0,2.023,0.905,2.023,2.022C12.838,15.555,11.933,16.461,10.815,16.461z"/><path d="M18.718,25.188c0,0-0.048-0.525-0.071-0.789c0.124-0.07,0.243-0.147,0.354-0.233c0.197,0.112,0.59,0.341,0.59,0.341     l0.671-0.176l0.761-1.315l-0.176-0.67c0,0-0.506-0.294-0.76-0.439c-0.006-0.146-0.022-0.291-0.052-0.43     c0.201-0.172,0.602-0.516,0.602-0.516v-0.693l-0.99-1.154h-0.694c0,0-0.329,0.281-0.493,0.422     c-0.178-0.086-0.367-0.157-0.563-0.211c-0.016-0.195-0.047-0.586-0.047-0.586l-0.49-0.49l-1.514,0.123l-0.49,0.49     c0,0,0.042,0.515,0.062,0.771c-0.148,0.084-0.289,0.18-0.419,0.286c-0.212-0.098-0.639-0.292-0.639-0.292l-0.671,0.176     l-0.634,1.382l-0.022,0.094l0.199,0.576c0,0,0.495,0.226,0.742,0.339c0.011,0.164,0.036,0.32,0.077,0.477     c-0.189,0.159-0.566,0.479-0.566,0.479v0.693l0.982,1.16c0,0,0.571,0.068,0.602,0.051c0.031-0.017,0.092-0.051,0.092-0.051     s0.359-0.305,0.538-0.456c0.151,0.067,0.309,0.125,0.474,0.169c0.019,0.204,0.056,0.611,0.056,0.611l0.49,0.49l1.512-0.139     L18.718,25.188z M16.945,23.561c-0.844,0-1.528-0.686-1.528-1.529c0-0.844,0.684-1.528,1.528-1.528     c0.845,0,1.53,0.685,1.53,1.528C18.475,22.875,17.79,23.561,16.945,23.561z"/><path d="M32.653,6.125c-6.418,0-12.835,0-19.253,0c-1.612,0-1.612,2.5,0,2.5c6.418,0,12.835,0,19.253,0     C34.265,8.625,34.265,6.125,32.653,6.125z"/><path d="M32.653,12.042c-6.418,0-2.836,0-9.254,0c-1.611,0-1.611,2.5,0,2.5c6.418,0,2.836,0,9.254,0     C34.265,14.542,34.265,12.042,32.653,12.042z"/><path d="M7.198,3 36.253,3 36.253,18.867 39.253,18.867 39.253,0 4.198,0 4.198,9.784 7.198,9.784z"/><path d="M33.97,35.793c-0.004-0.319-0.029-0.637-0.084-0.943c0.449-0.361,1.35-1.082,1.35-1.082l0.049-1.511l-2.076-2.586     l-1.514-0.049c0,0-0.736,0.592-1.104,0.887c-0.383-0.2-0.789-0.369-1.213-0.5c-0.021-0.427-0.064-1.282-0.064-1.282l-1.035-1.102     l-3.309,0.161l-1.104,1.034c0,0,0.055,1.125,0.08,1.687c-0.328,0.173-0.641,0.372-0.933,0.593     c-0.457-0.228-1.374-0.683-1.374-0.683l-1.475,0.337l-1.479,2.97l-0.055,0.203l0.392,1.271c0,0,1.063,0.526,1.595,0.791     c0.012,0.357,0.056,0.705,0.133,1.043c-0.423,0.334-1.269,1.009-1.269,1.009l-0.049,1.509l2.06,2.598c0,0,1.24,0.188,1.308,0.153     s0.204-0.104,0.204-0.104s0.805-0.638,1.207-0.957c0.324,0.16,0.664,0.295,1.02,0.402c0.025,0.446,0.078,1.338,0.078,1.338     l1.035,1.102l3.305-0.194l1.104-1.032c0,0-0.066-1.149-0.1-1.724c0.273-0.146,0.539-0.308,0.789-0.487     c0.42,0.262,1.264,0.786,1.264,0.786l1.475-0.338l1.752-2.813l-0.338-1.476C35.597,36.803,34.513,36.129,33.97,35.793z      M27.005,39.179c-1.84-0.059-3.285-1.599-3.225-3.438c0.059-1.844,1.6-3.286,3.439-3.228c1.842,0.06,3.285,1.599,3.227,3.442     C30.386,37.796,28.847,39.238,27.005,39.179z"/><path d="M40.116,28.74c0,0-1.166-0.725-1.75-1.086c-0.004-0.344-0.029-0.684-0.09-1.013c0.484-0.389,1.453-1.165,1.453-1.165     l0.053-1.625l-2.234-2.782l-1.627-0.053c0,0-0.793,0.635-1.188,0.955c-0.412-0.217-0.848-0.399-1.307-0.539     c-0.021-0.46-0.066-1.379-0.066-1.379l-1.111-1.187l-3.562,0.174l-1.186,1.112c0,0,0.059,1.209,0.086,1.813     c-0.354,0.187-0.689,0.399-1.002,0.64c-0.492-0.246-1.48-0.734-1.48-0.734l-1.584,0.363l-1.593,3.192l-0.06,0.22l0.423,1.366     c0,0,0.746,0.37,1.335,0.662l0.66-0.619l0.27-0.251l0.367-0.018l2.656-0.129c0.465-1.506,1.877-2.584,3.527-2.53     c1.982,0.063,3.535,1.719,3.471,3.7c-0.016,0.533-0.156,1.031-0.379,1.479l1.865,2.324l0.232,0.289l-0.012,0.37l-0.031,0.958     c0.387,0.24,0.758,0.471,0.758,0.471l1.586-0.363l1.883-3.025L40.116,28.74z"/><path d="M5.927,25.189c0.294,0,0.537-0.08,0.73-0.238c0.193-0.157,0.339-0.381,0.436-0.67c0.097-0.291,0.146-0.672,0.146-1.145     c0-0.398-0.031-0.716-0.09-0.949c-0.061-0.237-0.145-0.436-0.25-0.601c-0.108-0.163-0.242-0.289-0.404-0.375     c-0.163-0.086-0.352-0.13-0.568-0.13c-0.293,0-0.536,0.078-0.729,0.236c-0.193,0.157-0.339,0.38-0.438,0.67     c-0.096,0.292-0.146,0.673-0.146,1.149c0,0.756,0.132,1.301,0.396,1.637C5.233,25.05,5.538,25.189,5.927,25.189z M5.378,21.778     c0.135-0.192,0.317-0.289,0.544-0.289c0.23,0,0.422,0.109,0.578,0.326c0.154,0.218,0.232,0.658,0.232,1.32     c0,0.659-0.078,1.098-0.232,1.316c-0.155,0.221-0.346,0.33-0.572,0.33c-0.227,0-0.418-0.109-0.572-0.328     c-0.155-0.219-0.232-0.658-0.232-1.318C5.122,22.477,5.207,22.023,5.378,21.778z"/><path d="M8.843,21.619c-0.207,0.185-0.449,0.342-0.725,0.473v0.477c0.154-0.056,0.328-0.141,0.521-0.254     c0.193-0.113,0.348-0.228,0.467-0.34v3.147H9.6v-4.04H9.281C9.196,21.256,9.05,21.434,8.843,21.619z"/><path d="M6.993,27.587c-0.107-0.163-0.24-0.289-0.404-0.375c-0.163-0.086-0.352-0.13-0.568-0.13     c-0.292,0-0.536,0.078-0.729,0.236c-0.193,0.156-0.337,0.379-0.436,0.67c-0.097,0.289-0.147,0.673-0.147,1.147     c0,0.756,0.133,1.302,0.398,1.636c0.221,0.278,0.525,0.418,0.914,0.418c0.294,0,0.538-0.08,0.732-0.238     c0.191-0.158,0.337-0.383,0.435-0.672c0.097-0.289,0.146-0.67,0.146-1.144c0-0.397-0.03-0.716-0.09-0.95     C7.182,27.949,7.098,27.751,6.993,27.587z M6.593,30.453c-0.155,0.22-0.345,0.33-0.572,0.33s-0.417-0.11-0.572-0.329     c-0.155-0.218-0.23-0.658-0.23-1.318c0-0.659,0.083-1.112,0.253-1.358c0.135-0.191,0.317-0.289,0.544-0.289     c0.231,0,0.423,0.109,0.578,0.326c0.155,0.219,0.232,0.658,0.232,1.32C6.825,29.796,6.748,30.234,6.593,30.453z"/><path d="M9.695,31.121v-4.04H9.376c-0.085,0.174-0.232,0.353-0.438,0.538c-0.206,0.185-0.448,0.342-0.724,0.473v0.477     c0.153-0.056,0.327-0.141,0.52-0.254s0.349-0.228,0.467-0.34v3.147L9.695,31.121L9.695,31.121z"/><path d="M12.403,31.121v-4.04h-0.318c-0.085,0.174-0.232,0.353-0.438,0.538c-0.206,0.185-0.448,0.342-0.724,0.473v0.477     c0.152-0.056,0.327-0.141,0.52-0.254s0.35-0.228,0.467-0.34v3.147L12.403,31.121L12.403,31.121z"/><path d="M15.952,27.587c-0.107-0.163-0.24-0.289-0.404-0.375c-0.163-0.086-0.352-0.13-0.567-0.13     c-0.293,0-0.537,0.078-0.73,0.236c-0.193,0.156-0.337,0.379-0.436,0.67c-0.097,0.291-0.146,0.673-0.146,1.148     c0,0.756,0.132,1.301,0.397,1.637c0.221,0.277,0.526,0.416,0.915,0.416c0.293,0,0.537-0.08,0.73-0.238     c0.193-0.157,0.337-0.381,0.435-0.67c0.097-0.291,0.147-0.672,0.147-1.145c0-0.398-0.031-0.716-0.092-0.949     C16.142,27.949,16.059,27.751,15.952,27.587z M15.552,30.453c-0.155,0.22-0.345,0.33-0.571,0.33c-0.228,0-0.418-0.11-0.574-0.329     c-0.155-0.218-0.23-0.658-0.23-1.318c0-0.659,0.085-1.112,0.253-1.358c0.137-0.191,0.317-0.289,0.544-0.289     c0.231,0,0.423,0.109,0.578,0.326c0.155,0.219,0.232,0.658,0.232,1.32C15.785,29.796,15.708,30.234,15.552,30.453z"/><path d="M6.993,34.332c-0.107-0.164-0.24-0.289-0.404-0.376c-0.163-0.086-0.352-0.13-0.568-0.13     c-0.292,0-0.536,0.078-0.729,0.236c-0.193,0.156-0.337,0.381-0.436,0.67c-0.097,0.291-0.147,0.672-0.147,1.148     c0,0.757,0.133,1.302,0.398,1.636c0.221,0.278,0.525,0.419,0.914,0.419c0.294,0,0.538-0.08,0.732-0.238     c0.191-0.158,0.337-0.383,0.435-0.672c0.097-0.289,0.146-0.672,0.146-1.145c0-0.396-0.03-0.716-0.09-0.95     C7.182,34.695,7.098,34.496,6.993,34.332z M6.593,37.199c-0.155,0.219-0.345,0.328-0.572,0.328s-0.417-0.108-0.572-0.328     c-0.155-0.219-0.23-0.657-0.23-1.318c0-0.659,0.083-1.111,0.253-1.357c0.135-0.191,0.317-0.289,0.544-0.289     c0.231,0,0.423,0.109,0.578,0.326c0.155,0.219,0.232,0.658,0.232,1.32C6.825,36.54,6.748,36.979,6.593,37.199z"/><path d="M10.119,34.332c-0.108-0.164-0.242-0.289-0.404-0.376c-0.163-0.086-0.352-0.13-0.568-0.13     c-0.292,0-0.536,0.078-0.729,0.236c-0.193,0.156-0.339,0.381-0.438,0.67c-0.097,0.291-0.146,0.672-0.146,1.147     c0,0.757,0.132,1.302,0.396,1.636c0.222,0.278,0.526,0.418,0.915,0.418c0.294,0,0.538-0.078,0.73-0.238     c0.193-0.157,0.339-0.381,0.436-0.672c0.097-0.289,0.146-0.67,0.146-1.144c0-0.397-0.031-0.716-0.09-0.95     C10.308,34.695,10.224,34.496,10.119,34.332z M9.719,37.199c-0.155,0.219-0.345,0.328-0.572,0.328s-0.418-0.108-0.572-0.328     c-0.155-0.219-0.232-0.657-0.232-1.318c0-0.659,0.085-1.111,0.255-1.357c0.135-0.191,0.317-0.289,0.544-0.289     c0.231,0,0.423,0.109,0.578,0.326c0.154,0.219,0.232,0.658,0.232,1.32C9.951,36.54,9.873,36.979,9.719,37.199z"/><path d="M13.243,34.332c-0.106-0.164-0.24-0.289-0.402-0.376c-0.165-0.086-0.354-0.13-0.568-0.13     c-0.292,0-0.536,0.078-0.729,0.236c-0.194,0.156-0.339,0.381-0.438,0.67c-0.097,0.291-0.146,0.672-0.146,1.147     c0,0.757,0.132,1.302,0.396,1.636c0.222,0.278,0.526,0.418,0.915,0.418c0.293,0,0.538-0.078,0.73-0.238     c0.193-0.157,0.337-0.381,0.435-0.672c0.097-0.289,0.147-0.67,0.147-1.144c0-0.397-0.031-0.716-0.092-0.95     C13.434,34.695,13.35,34.496,13.243,34.332z M12.844,37.199c-0.154,0.219-0.346,0.328-0.571,0.328     c-0.228,0-0.418-0.108-0.573-0.328c-0.155-0.219-0.231-0.657-0.231-1.318c0-0.659,0.085-1.111,0.254-1.357     c0.136-0.191,0.318-0.289,0.544-0.289c0.23,0,0.423,0.109,0.578,0.326c0.155,0.219,0.233,0.658,0.233,1.32     C13.077,36.54,12.999,36.979,12.844,37.199z"/><path d="M15.948,37.865v-4.039H15.63c-0.086,0.174-0.233,0.353-0.44,0.537c-0.207,0.186-0.448,0.343-0.724,0.474v0.478     c0.154-0.058,0.327-0.143,0.52-0.256s0.35-0.228,0.467-0.34v3.148h0.495V37.865z"/><path d="M18.615,40.912c-0.207,0.185-0.449,0.342-0.725,0.473v0.477c0.154-0.057,0.328-0.141,0.521-0.254     c0.193-0.112,0.348-0.227,0.467-0.34v3.147h0.494v-4.041h-0.319C18.967,40.548,18.821,40.727,18.615,40.912z"/><path d="M6.993,41.076c-0.107-0.163-0.24-0.288-0.404-0.375c-0.163-0.088-0.352-0.131-0.568-0.131     c-0.292,0-0.536,0.078-0.729,0.235c-0.193,0.157-0.337,0.382-0.436,0.671c-0.097,0.291-0.147,0.674-0.147,1.149     c0,0.756,0.133,1.3,0.398,1.636c0.221,0.276,0.525,0.416,0.914,0.416c0.294,0,0.538-0.078,0.732-0.236     c0.191-0.158,0.337-0.384,0.435-0.674c0.097-0.289,0.146-0.671,0.146-1.142c0-0.399-0.03-0.718-0.09-0.951     C7.182,41.439,7.098,41.24,6.993,41.076z M6.593,43.943c-0.155,0.22-0.345,0.33-0.572,0.33s-0.417-0.11-0.572-0.33     c-0.155-0.219-0.23-0.656-0.23-1.316c0-0.661,0.083-1.113,0.253-1.359c0.135-0.191,0.317-0.287,0.544-0.287     c0.231,0,0.423,0.107,0.578,0.326c0.155,0.217,0.232,0.657,0.232,1.32C6.825,43.285,6.748,43.724,6.593,43.943z"/><path d="M8.938,41.107c-0.207,0.186-0.448,0.342-0.724,0.474v0.477c0.153-0.057,0.327-0.141,0.52-0.254     c0.193-0.112,0.349-0.228,0.467-0.34v3.147h0.494V40.57H9.376C9.291,40.745,9.144,40.923,8.938,41.107z"/><path d="M11.647,41.107c-0.207,0.186-0.448,0.342-0.724,0.474v0.477c0.152-0.057,0.327-0.141,0.52-0.254     c0.193-0.112,0.35-0.228,0.467-0.34v3.147h0.494V40.57h-0.318C12,40.745,11.853,40.923,11.647,41.107z"/><path d="M15.952,41.076c-0.107-0.163-0.24-0.288-0.404-0.375c-0.163-0.088-0.352-0.131-0.567-0.131     c-0.293,0-0.537,0.078-0.73,0.235s-0.337,0.382-0.436,0.671c-0.097,0.291-0.146,0.674-0.146,1.149c0,0.756,0.132,1.3,0.397,1.636     c0.221,0.276,0.526,0.416,0.915,0.416c0.293,0,0.537-0.078,0.73-0.236s0.337-0.384,0.435-0.674     c0.097-0.289,0.147-0.671,0.147-1.142c0-0.399-0.031-0.718-0.092-0.951C16.142,41.439,16.059,41.24,15.952,41.076z      M15.552,43.943c-0.155,0.22-0.345,0.33-0.571,0.33c-0.228,0-0.418-0.11-0.574-0.33c-0.155-0.219-0.23-0.656-0.23-1.316     c0-0.661,0.085-1.113,0.253-1.359c0.137-0.191,0.317-0.287,0.544-0.287c0.231,0,0.423,0.107,0.578,0.326     c0.155,0.217,0.232,0.657,0.232,1.32C15.785,43.285,15.708,43.724,15.552,43.943z"/></g><g transform="matrix(0.1171875 0 0 0.1171875 173 233)" id="L1_24"><path d="M361.931,494.345H150.069c0-19.5,15.81-35.31,35.31-35.31h141.241   C346.121,459.034,361.931,474.845,361.931,494.345" fill="#e8edee"/><path d="M317.793,459.034 194.207,459.034 211.862,388.414 300.138,388.414z" fill="#b0b6bb"/><path d="M512,317.793H0V48.552c0-17.064,13.833-30.897,30.897-30.897h450.207   c17.064,0,30.897,13.833,30.897,30.897V317.793z" fill="#38454f"/><path d="M481.103,388.414H30.897C13.833,388.414,0,374.581,0,357.517v-39.724h512v39.724   C512,374.581,498.167,388.414,481.103,388.414" fill="#e8edee"/><g><path d="M432.552,282.483H300.138c-4.882,0-8.828-3.955-8.828-8.828c0-4.873,3.946-8.828,8.828-8.828    h132.414c4.882,0,8.828,3.955,8.828,8.828C441.379,278.528,437.433,282.483,432.552,282.483" fill="#ea6148"/><path d="M167.724,229.517H79.448c-4.882,0-8.828-3.955-8.828-8.828c0-4.873,3.946-8.828,8.828-8.828h88.276    c4.882,0,8.828,3.955,8.828,8.828C176.552,225.562,172.606,229.517,167.724,229.517" fill="#ea6148"/><path d="M388.414,229.517H256c-4.882,0-8.828-3.955-8.828-8.828c0-4.873,3.946-8.828,8.828-8.828h132.414    c4.882,0,8.828,3.955,8.828,8.828C397.241,225.562,393.295,229.517,388.414,229.517" fill="#ea6148"/><path d="M211.862,229.517c-1.148,0-2.295-0.265-3.354-0.706c-1.148-0.441-2.03-1.059-2.913-1.854    c-1.598-1.677-2.56-3.884-2.56-6.268s0.962-4.59,2.56-6.268c0.883-0.794,1.766-1.412,2.913-1.854    c3.169-1.324,7.15-0.618,9.622,1.854c1.589,1.677,2.56,3.972,2.56,6.268c0,2.295-0.971,4.59-2.56,6.268    C216.452,228.546,214.157,229.517,211.862,229.517" fill="#ea6148"/><path d="M256,282.483H123.586c-4.882,0-8.828-3.955-8.828-8.828c0-4.873,3.946-8.828,8.828-8.828H256    c4.882,0,8.828,3.955,8.828,8.828C264.828,278.528,260.882,282.483,256,282.483" fill="#ea6148"/><path d="M79.448,282.483c-1.148,0-2.295-0.265-3.354-0.706c-1.059-0.441-2.03-1.059-2.913-1.854    c-1.598-1.677-2.56-3.884-2.56-6.268c0-1.148,0.265-2.295,0.706-3.354c0.441-1.148,1.059-2.03,1.854-2.913    c2.119-2.03,5.12-2.913,7.936-2.383c0.627,0.088,1.148,0.265,1.686,0.53c0.521,0.177,1.059,0.441,1.501,0.794    c0.521,0.353,0.971,0.706,1.412,1.059c0.794,0.883,1.412,1.766,1.854,2.913c0.441,1.059,0.706,2.207,0.706,3.354    c0,2.383-0.971,4.59-2.56,6.268c-0.441,0.353-0.892,0.706-1.412,1.059c-0.441,0.353-0.98,0.618-1.501,0.794    c-0.538,0.265-1.059,0.441-1.686,0.53C80.596,282.394,79.978,282.483,79.448,282.483" fill="#ea6148"/><path d="M432.552,229.517c-0.538,0-1.148-0.088-1.677-0.177c-0.618-0.088-1.148-0.265-1.677-0.53    c-0.53-0.177-1.059-0.441-1.598-0.794c-0.433-0.353-0.874-0.706-1.315-1.059c-1.598-1.677-2.56-3.972-2.56-6.268    c0-2.295,0.962-4.59,2.56-6.268l1.315-1.059c0.539-0.353,1.068-0.618,1.598-0.794c0.53-0.265,1.059-0.441,1.677-0.53    c2.825-0.618,5.906,0.353,7.945,2.383c0.353,0.441,0.706,0.883,1.059,1.412c0.353,0.441,0.609,0.971,0.794,1.501    c0.265,0.53,0.441,1.059,0.521,1.677c0.097,0.53,0.185,1.148,0.185,1.677s-0.088,1.148-0.185,1.766    c-0.079,0.53-0.256,1.059-0.521,1.589c-0.185,0.53-0.441,1.059-0.794,1.589c-0.353,0.441-0.706,0.883-1.059,1.324    c-0.441,0.353-0.892,0.706-1.324,1.059c-0.53,0.353-1.068,0.618-1.589,0.794c-0.538,0.265-1.059,0.441-1.686,0.53    C433.699,229.429,433.081,229.517,432.552,229.517" fill="#ea6148"/><path d="M432.552,123.586H300.138c-4.882,0-8.828-3.955-8.828-8.828s3.946-8.828,8.828-8.828h132.414    c4.882,0,8.828,3.955,8.828,8.828S437.433,123.586,432.552,123.586" fill="#ea6148"/><path d="M432.552,176.552h-88.276c-4.882,0-8.828-3.955-8.828-8.828s3.946-8.828,8.828-8.828h88.276    c4.882,0,8.828,3.955,8.828,8.828S437.433,176.552,432.552,176.552" fill="#ea6148"/><path d="M273.655,176.552H256c-4.882,0-8.828-3.955-8.828-8.828s3.946-8.828,8.828-8.828h17.655    c4.882,0,8.828,3.955,8.828,8.828S278.537,176.552,273.655,176.552" fill="#ea6148"/><path d="M388.414,70.621H256c-4.882,0-8.828-3.955-8.828-8.828s3.946-8.828,8.828-8.828h132.414    c4.882,0,8.828,3.955,8.828,8.828S393.295,70.621,388.414,70.621" fill="#ea6148"/><path d="M432.552,70.621c-0.538,0-1.148-0.088-1.677-0.177c-0.618-0.088-1.148-0.265-1.677-0.53    c-0.53-0.177-1.059-0.441-1.598-0.794c-0.433-0.353-0.874-0.706-1.315-1.059c-1.598-1.677-2.56-3.972-2.56-6.268    c0-2.295,0.962-4.59,2.56-6.268l1.315-1.059c0.539-0.353,1.068-0.618,1.598-0.794c0.53-0.265,1.059-0.441,1.677-0.53    c2.825-0.618,5.906,0.353,7.945,2.383c0.353,0.441,0.706,0.883,1.059,1.412c0.353,0.441,0.609,0.971,0.794,1.501    c0.265,0.53,0.441,1.059,0.521,1.677c0.097,0.53,0.185,1.148,0.185,1.677s-0.088,1.148-0.185,1.766    c-0.079,0.53-0.256,1.059-0.521,1.589c-0.185,0.53-0.441,1.059-0.794,1.589c-0.353,0.441-0.706,0.883-1.059,1.324    c-0.441,0.353-0.892,0.706-1.324,1.059c-0.53,0.353-1.068,0.618-1.589,0.794c-0.538,0.265-1.059,0.441-1.686,0.53    C433.699,70.532,433.081,70.621,432.552,70.621" fill="#ea6148"/><path d="M264.828,123.586c-2.295,0-4.599-0.971-6.268-2.56c-0.794-0.883-1.412-1.854-1.854-2.913    S256,115.906,256,114.759c0-1.148,0.265-2.295,0.706-3.354s1.059-2.03,1.854-2.913c2.03-2.03,5.12-2.913,7.936-2.383    c0.627,0.088,1.148,0.265,1.686,0.53c0.521,0.177,1.059,0.441,1.501,0.794c0.521,0.353,0.971,0.706,1.324,1.059    c0.883,0.883,1.501,1.854,1.942,2.913s0.706,2.207,0.706,3.354c0,1.148-0.265,2.295-0.706,3.354s-1.059,2.03-1.942,2.913    c-0.353,0.353-0.803,0.706-1.324,1.059c-0.441,0.353-0.98,0.618-1.501,0.794c-0.538,0.265-1.059,0.441-1.686,0.53    C265.975,123.498,265.357,123.586,264.828,123.586" fill="#ea6148"/><path d="M308.966,176.552c-2.392,0-4.599-0.971-6.268-2.56c-1.598-1.677-2.56-3.972-2.56-6.268    c0-2.295,0.962-4.59,2.56-6.268c3.266-3.266,9.269-3.266,12.535,0c1.589,1.677,2.56,3.972,2.56,6.268    c0,0.618-0.088,1.148-0.185,1.766c-0.079,0.53-0.256,1.059-0.521,1.589c-0.185,0.53-0.441,1.059-0.794,1.589    c-0.353,0.441-0.706,0.883-1.059,1.324C313.556,175.581,311.349,176.552,308.966,176.552" fill="#ea6148"/></g><path d="M79.448,176.552 203.034,176.552 203.034,52.966 79.448,52.966z" fill="#ecba16"/></g><g transform="matrix(0.11473388969898224 0 0 0.11473388969898224 317 311)" id="L1_25"><path d="m179.765625 408.554688h163.417969v98.050781h-163.417969zm0 0" fill="#d7e1f2"/><path d="m375.871094 522.949219h-228.792969c-9.019531 0-16.339844-7.320313-16.339844-16.34375 0-9.019531 7.320313-16.339844 16.339844-16.339844h228.792969c9.019531 0 16.339844 7.320313 16.339844 16.339844 0 9.023437-7.320313 16.34375-16.339844 16.34375zm0 0" fill="#e4edfb"/><path d="m522.949219 32.683594c0-18.058594-14.625-32.683594-32.683594-32.683594h-457.582031c-18.058594 0-32.683594 14.625-32.683594 32.683594v326.84375h522.949219zm0 0" fill="#80deea"/><path d="m0 343.183594v65.371094c0 18.058593 14.625 32.683593 32.683594 32.683593h457.582031c18.058594 0 32.683594-14.625 32.683594-32.683593v-65.371094zm0 0" fill="#e4edfb"/><g fill="#ffffff"><path d="m140.3125 245.132812-65.367188-65.367187 65.367188-65.371094c6.375-6.371093 16.734375-6.371093 23.109375 0 6.375 6.375 6.375 16.734375 0 23.109375l-42.261719 42.261719 42.261719 42.257813c6.375 6.375 6.375 16.734374 0 23.109374s-16.734375 6.375-23.109375 0zm0 0"/><path d="m359.527344 245.132812c-6.375-6.375-6.375-16.734374 0-23.109374l42.261718-42.257813-42.261718-42.261719c-6.375-6.375-6.375-16.734375 0-23.109375 6.375-6.371093 16.734375-6.371093 23.109375 0l65.367187 65.371094-65.367187 65.367187c-6.375 6.375-16.734375 6.375-23.109375 0zm0 0"/><path d="m228.789062 245.132812c-8.070312-4.035156-11.355468-13.859374-7.320312-21.929687l50.757812-101.503906c4.039063-8.070313 13.859376-11.339844 21.933594-7.304688 8.070313 4.039063 11.339844 13.859375 7.304688 21.914063l-50.757813 101.503906c-4.023437 8.089844-13.84375 11.355469-21.917969 7.320312zm0 0"/></g><path d="m245.132812 375.871094h32.683594v32.683594h-32.683594zm0 0" fill="#77959e"/></g></defs><g fi:class="KUsePattern"><pattern id="pattern_L1_21" width="350" height="350" patternUnits="userSpaceOnUse"><use xlink:href="#L1_21" x="-350" y="-350"/><use xlink:href="#L1_21" x="0" y="-350"/><use xlink:href="#L1_21" x="350" y="-350"/><use xlink:href="#L1_21" x="-350" y="0"/><use xlink:href="#L1_21" x="0" y="0"/><use xlink:href="#L1_21" x="350" y="0"/><use xlink:href="#L1_21" x="-350" y="350"/><use xlink:href="#L1_21" x="0" y="350"/><use xlink:href="#L1_21" x="350" y="350"/></pattern><rect x="0" y="0" width="100%" height="100%" fill="url(#pattern_L1_21)"/></g><g fi:class="KUsePattern"><pattern id="pattern_L1_22" width="350" height="350" patternUnits="userSpaceOnUse"><use xlink:href="#L1_22" x="-350" y="-350"/><use xlink:href="#L1_22" x="0" y="-350"/><use xlink:href="#L1_22" x="350" y="-350"/><use xlink:href="#L1_22" x="-350" y="0"/><use xlink:href="#L1_22" x="0" y="0"/><use xlink:href="#L1_22" x="350" y="0"/><use xlink:href="#L1_22" x="-350" y="350"/><use xlink:href="#L1_22" x="0" y="350"/><use xlink:href="#L1_22" x="350" y="350"/></pattern><rect x="0" y="0" width="100%" height="100%" fill="url(#pattern_L1_22)"/></g><g fi:class="KUsePattern"><pattern id="pattern_L1_23" width="350" height="350" patternUnits="userSpaceOnUse"><use xlink:href="#L1_23" x="-350" y="-350"/><use xlink:href="#L1_23" x="0" y="-350"/><use xlink:href="#L1_23" x="350" y="-350"/><use xlink:href="#L1_23" x="-350" y="0"/><use xlink:href="#L1_23" x="0" y="0"/><use xlink:href="#L1_23" x="350" y="0"/><use xlink:href="#L1_23" x="-350" y="350"/><use xlink:href="#L1_23" x="0" y="350"/><use xlink:href="#L1_23" x="350" y="350"/></pattern><rect x="0" y="0" width="100%" height="100%" fill="url(#pattern_L1_23)"/></g><g fi:class="KUsePattern"><pattern id="pattern_L1_24" width="350" height="350" patternUnits="userSpaceOnUse"><use xlink:href="#L1_24" x="-350" y="-350"/><use xlink:href="#L1_24" x="0" y="-350"/><use xlink:href="#L1_24" x="350" y="-350"/><use xlink:href="#L1_24" x="-350" y="0"/><use xlink:href="#L1_24" x="0" y="0"/><use xlink:href="#L1_24" x="350" y="0"/><use xlink:href="#L1_24" x="-350" y="350"/><use xlink:href="#L1_24" x="0" y="350"/><use xlink:href="#L1_24" x="350" y="350"/></pattern><rect x="0" y="0" width="100%" height="100%" fill="url(#pattern_L1_24)"/></g><g fi:class="KUsePattern"><pattern id="pattern_L1_25" width="350" height="350" patternUnits="userSpaceOnUse"><use xlink:href="#L1_25" x="-350" y="-350"/><use xlink:href="#L1_25" x="0" y="-350"/><use xlink:href="#L1_25" x="350" y="-350"/><use xlink:href="#L1_25" x="-350" y="0"/><use xlink:href="#L1_25" x="0" y="0"/><use xlink:href="#L1_25" x="350" y="0"/><use xlink:href="#L1_25" x="-350" y="350"/><use xlink:href="#L1_25" x="0" y="350"/><use xlink:href="#L1_25" x="350" y="350"/></pattern><rect x="0" y="0" width="100%" height="100%" fill="url(#pattern_L1_25)"/></g></svg>